<svg width="200" height="200" xmlns="http://www.w3.org/2000/svg">
  <defs>
    <linearGradient id="wheatGradient" x1="0%" y1="0%" x2="100%" y2="100%">
      <stop offset="0%" style="stop-color:#584c33;stop-opacity:1" />
      <stop offset="100%" style="stop-color:#76441b;stop-opacity:1" />
    </linearGradient>
  </defs>
  
  <!-- Background -->
  <rect width="200" height="200" fill="#f0f9ff"/>
  
  <!-- Soil -->
  <rect x="0" y="150" width="200" height="50" fill="url(#wheatGradient)"/>
  
  <!-- Wheat plants -->
  <g fill="#416422">
    <!-- Plant 1 -->
    <rect x="35" y="120" width="2" height="30"/>
    <path d="M 33 120 L 35 110 L 37 120" fill="#D9D40C"/>
    <path d="M 32 115 L 35 105 L 38 115" fill="#D9D40C"/>
    <path d="M 34 110 L 35 100 L 36 110" fill="#D9D40C"/>
    
    <!-- Plant 2 -->
    <rect x="70" y="125" width="2" height="25"/>
    <path d="M 68 125 L 70 115 L 72 125" fill="#D9D40C"/>
    <path d="M 67 120 L 70 110 L 73 120" fill="#D9D40C"/>
    <path d="M 69 115 L 70 105 L 71 115" fill="#D9D40C"/>
    
    <!-- Plant 3 -->
    <rect x="105" y="118" width="2" height="32"/>
    <path d="M 103 118 L 105 108 L 107 118" fill="#D9D40C"/>
    <path d="M 102 113 L 105 103 L 108 113" fill="#D9D40C"/>
    <path d="M 104 108 L 105 98 L 106 108" fill="#D9D40C"/>
    
    <!-- Plant 4 -->
    <rect x="140" y="122" width="2" height="28"/>
    <path d="M 138 122 L 140 112 L 142 122" fill="#D9D40C"/>
    <path d="M 137 117 L 140 107 L 143 117" fill="#D9D40C"/>
    <path d="M 139 112 L 140 102 L 141 112" fill="#D9D40C"/>
    
    <!-- Plant 5 -->
    <rect x="175" y="120" width="2" height="30"/>
    <path d="M 173 120 L 175 110 L 177 120" fill="#D9D40C"/>
    <path d="M 172 115 L 175 105 L 178 115" fill="#D9D40C"/>
    <path d="M 174 110 L 175 100 L 176 110" fill="#D9D40C"/>
  </g>
  
  <!-- Sun -->
  <circle cx="170" cy="30" r="15" fill="#fde047" opacity="0.8"/>
  <g stroke="#fde047" stroke-width="2" opacity="0.6">
    <line x1="170" y1="10" x2="170" y2="15"/>
    <line x1="185" y1="20" x2="188" y2="23"/>
    <line x1="190" y1="35" x2="193" y2="38"/>
    <line x1="185" y1="50" x2="188" y2="53"/>
    <line x1="170" y1="60" x2="170" y2="65"/>
    <line x1="155" y1="50" x2="152" y2="53"/>
    <line x1="150" y1="35" x2="147" y2="38"/>
    <line x1="155" y1="20" x2="152" y2="23"/>
  </g>
  
  <!-- Title -->
  <text x="100" y="25" text-anchor="middle" font-family="Arial, sans-serif" font-size="16" font-weight="bold" fill="#416422">WHEAT</text>
  <text x="100" y="45" text-anchor="middle" font-family="Arial, sans-serif" font-size="12" fill="#666">Winter Crop</text>
</svg>

